<?xml version="1.0" encoding="iso-8859-1"?>
<!-- Generator: Adobe Illustrator 16.0.0, SVG Export Plug-In . SVG Version: 6.00 Build 0)  -->
<!DOCTYPE svg PUBLIC "-//W3C//DTD SVG 1.1//EN" "http://www.w3.org/Graphics/SVG/1.1/DTD/svg11.dtd">
<svg version="1.1" id="Capa_1" xmlns="http://www.w3.org/2000/svg" xmlns:xlink="http://www.w3.org/1999/xlink" x="0px" y="0px"
	 width="85.145px" height="85.145px" viewBox="0 0 85.145 85.145" style="enable-background:new 0 0 85.145 85.145;"
	 xml:space="preserve">
<g>
	<path d="M25.19,20.593c0-0.294-0.93-2.757-0.92-3.048c0.011-0.341,0.964-0.677,0.989-1.01c0.636-8.39,5.172-14.199,11.355-16.382
		v7.091c0,4.072,2.667,7.373,5.957,7.373c3.291,0,5.957-3.3,5.957-7.373V0.347c7.823,3.168,10.734,12.06,11.571,16.461
		c0.062,0.322,0.731,0.235,0.769,0.508c0.121,0.935-1.404,3.277-1.404,3.277c-3.555,1.751-6.688,3.843-10.361,4.248l-13.518-0.064
		C29.798,23.79,25.19,20.593,25.19,20.593z M49.376,27.265l-0.144,0.016L35.164,27.18c-4.105-0.701-7.628-2.392-9.633-3.516
		c1.135,8.409,8.322,14.898,17.043,14.898c8.868,0,16.167-6.71,17.106-15.33c-0.458,0.235-0.92,0.469-1.367,0.706
		C55.555,25.394,52.705,26.898,49.376,27.265z M71.918,61.777v17.869h-0.121l-1.15,0.584c-0.582,0.293-9.973,4.914-26.172,4.914
		c-8.295,0-18.373-1.211-29.971-4.834l-1.232-0.386l-0.045-0.278V61.777c0-12.154,9.889-22.043,22.041-22.043h14.607
		C62.031,39.734,71.918,49.623,71.918,61.777z M46.664,76.045l-1.889-26.889c-0.012-0.143-0.129-0.25-0.271-0.25h-3.647
		c-0.143,0-0.26,0.107-0.27,0.25l-1.758,26.891c-0.002,0.059,0.012,0.115,0.042,0.162l3.514,5.542
		c0.049,0.077,0.134,0.124,0.223,0.124c0.002,0,0.005,0,0.007,0c0.089,0,0.171-0.042,0.223-0.12l3.783-5.537
		C46.652,76.167,46.672,76.107,46.664,76.045z M47.59,44.486c0-0.623-0.504-1.125-1.125-1.125h-7.543
		c-0.623,0-1.127,0.502-1.127,1.125l3.141,6.492h3.613L47.59,44.486z M42.572,13.917c-3.013,0-5.464-2.98-5.464-6.643V0h10.927
		v7.275C48.035,10.937,45.585,13.917,42.572,13.917z M38.108,1v6.275c0,3.111,2.002,5.643,4.464,5.643
		c2.461,0,4.463-2.531,4.463-5.643V1H38.108z"/>
</g>
<g>
</g>
<g>
</g>
<g>
</g>
<g>
</g>
<g>
</g>
<g>
</g>
<g>
</g>
<g>
</g>
<g>
</g>
<g>
</g>
<g>
</g>
<g>
</g>
<g>
</g>
<g>
</g>
<g>
</g>
</svg>
